<?xml version="1.0" encoding="UTF-8"?>
<svg version="1.1" xmlns="http://www.w3.org/2000/svg" width="900" height="900">
<path d="M0 0 C0 0.66 0 1.32 0 2 C1.12148437 2.19916016 1.12148437 2.19916016 2.265625 2.40234375 C3.74289062 2.66724609 3.74289062 2.66724609 5.25 2.9375 C6.22453125 3.11152344 7.1990625 3.28554688 8.203125 3.46484375 C11 4 11 4 13.13671875 4.65625 C16.39041266 5.25651219 19.07739397 3.32845728 22 2 C22.99 2 23.98 2 25 2 C25 1.34 25 0.68 25 0 C28.3 0 31.6 0 35 0 C35 0.66 35 1.32 35 2 C35.825 2.061875 36.65 2.12375 37.5 2.1875 C42.63466917 3.37947677 47.04969937 5.56484809 50.3984375 9.74609375 C52.42010117 13.07968811 53 15.05528049 53 19 C53.66 19 54.32 19 55 19 C55 56.29 55 93.58 55 132 C54.34 132 53.68 132 53 132 C53.07541016 133.75570312 53.07541016 133.75570312 53.15234375 135.546875 C53.15097318 142.54775134 51.76919044 149.37872913 50.5625 156.25 C50.32941274 157.61186545 50.09698623 158.97384416 49.86523438 160.3359375 C48.96776542 165.56987236 48.06487756 170.7971903 47 176 C46.34 176 45.68 176 45 176 C44.938125 177.27875 44.87625 178.5575 44.8125 179.875 C44.02438664 188.13824919 41.34103107 196.06986523 39 204 C38.34 204 37.68 204 37 204 C36.7525 205.2375 36.505 206.475 36.25 207.75 C34.27717223 216.53805096 31.3515575 224.69170515 27.171875 232.6640625 C25.48811208 236.02036325 24.24545785 239.4602777 23 243 C22.34 243 21.68 243 21 243 C20.81824219 243.56847656 20.63648438 244.13695312 20.44921875 244.72265625 C16.17728041 257.84517453 16.17728041 257.84517453 13.56640625 260.40625 C11.11284338 262.90264314 9.78581325 265.95441561 8.18359375 269.0390625 C7 271 7 271 5 272 C3.90311223 274.47798938 3.01551704 277.00548707 2.09765625 279.5546875 C1.00267797 281.99403414 0.00417431 283.27448094 -2 285 C-4.75619237 287.39668902 -6.25605257 290.08649988 -7.9375 293.28125 C-9.09873188 295.15971334 -10.43762828 296.44140213 -12 298 C-13.31555675 299.75315827 -14.60498338 301.52607585 -15.875 303.3125 C-23.94994455 314.5285239 -23.94994455 314.5285239 -28 318 C-28.66 318 -29.32 318 -30 318 C-30.309375 319.0828125 -30.309375 319.0828125 -30.625 320.1875 C-32.09813292 323.20072644 -33.79393558 324.71135424 -36.421875 326.74609375 C-38.23534406 328.13819129 -38.23534406 328.13819129 -40.5625 330.5625 C-42.92017117 332.92017117 -45.39286286 334.92766022 -48 337 C-48.57878906 337.598125 -49.15757812 338.19625 -49.75390625 338.8125 C-52.44873939 341.43703315 -55.37485503 343.68047849 -58.375 345.9375 C-61.68604506 348.44012401 -64.96975194 350.94956366 -68.140625 353.62890625 C-71.90299094 356.74879166 -75.8984135 359.35381516 -80 362 C-80.70769531 362.46921875 -81.41539062 362.9384375 -82.14453125 363.421875 C-85.25859176 365.44631204 -87.87960668 366.96059855 -91.4375 368.125 C-92.7059375 368.558125 -92.7059375 368.558125 -94 369 C-94.33 369.99 -94.66 370.98 -95 372 C-99.25162208 374.94265013 -103.86865375 376.48686537 -109 377 C-109.33 377.99 -109.66 378.98 -110 380 C-112.87109375 381.38671875 -112.87109375 381.38671875 -116.4375 382.6875 C-117.61183594 383.12449219 -118.78617188 383.56148437 -119.99609375 384.01171875 C-123 385 -123 385 -125 385 C-125 385.66 -125 386.32 -125 387 C-125.59014893 387.20157715 -126.18029785 387.4031543 -126.78833008 387.61083984 C-129.46460363 388.5277723 -132.13855296 389.45130616 -134.8125 390.375 C-135.74126953 390.69210937 -136.67003906 391.00921875 -137.62695312 391.3359375 C-138.9659668 391.8 -138.9659668 391.8 -140.33203125 392.2734375 C-141.15421143 392.55622559 -141.9763916 392.83901367 -142.82348633 393.13037109 C-145.23300276 394.00627644 -145.23300276 394.00627644 -148 396 C-149.5535298 396.48688587 -151.12753309 396.91045564 -152.7109375 397.2890625 C-153.62617187 397.50820313 -154.54140625 397.72734375 -155.484375 397.953125 C-156.43828125 398.17484375 -157.3921875 398.3965625 -158.375 398.625 C-159.32117188 398.85445312 -160.26734375 399.08390625 -161.2421875 399.3203125 C-165.60703758 400.35022095 -169.49380752 401.13167772 -174 401 C-174 401.66 -174 402.32 -174 403 C-177.97858003 403.64948119 -181.95796229 404.293915 -185.9375 404.9375 C-187.05447266 405.11990234 -188.17144531 405.30230469 -189.32226562 405.49023438 C-217.39303079 410.01777714 -245.54643064 409.73035096 -273.6875 406.125 C-274.96560547 405.96362549 -276.24371094 405.80225098 -277.56054688 405.63598633 C-283.51464842 404.82652701 -289.06777944 403.8689296 -294.7097168 401.79394531 C-299.55446875 400.11447262 -304.58521464 399.02756966 -309.5625 397.8125 C-311.21862305 397.40354492 -311.21862305 397.40354492 -312.90820312 396.98632812 C-315.60468557 396.32096233 -318.30193885 395.65892926 -321 395 C-321 394.34 -321 393.68 -321 393 C-322.2375 392.7525 -323.475 392.505 -324.75 392.25 C-330.64826858 390.95181648 -336.30344763 388.98560032 -342 387 C-342 386.34 -342 385.68 -342 385 C-342.69480469 384.88785156 -343.38960937 384.77570313 -344.10546875 384.66015625 C-347.37032964 383.91553885 -350.23600205 382.75599912 -353.3125 381.4375 C-354.38113281 380.98246094 -355.44976562 380.52742188 -356.55078125 380.05859375 C-357.35902344 379.70925781 -358.16726563 379.35992188 -359 379 C-359 378.34 -359 377.68 -359 377 C-359.58007812 376.81824219 -360.16015625 376.63648438 -360.7578125 376.44921875 C-365.39147293 374.9581894 -369.69762355 373.31666424 -374 371 C-374 370.34 -374 369.68 -374 369 C-375.175625 368.690625 -375.175625 368.690625 -376.375 368.375 C-381.31096545 366.50273724 -385.54158809 363.80243034 -390 361 C-390.98484375 360.3915625 -391.9696875 359.783125 -392.984375 359.15625 C-400.87409257 354.23039459 -400.87409257 354.23039459 -404 351 C-405.14947978 350.14311507 -406.31673975 349.30959912 -407.5 348.5 C-409.93227246 346.83581358 -411.92008794 345.07991206 -414 343 C-415.65788785 341.65576661 -417.32576317 340.32381517 -419 339 C-425.09784913 334.05055217 -430.52597049 328.62750697 -436 323 C-439.37171527 319.52487867 -439.37171527 319.52487867 -443.125 316.5 C-445.46508533 314.62793173 -446.51774502 312.59394621 -448 310 C-451.73268547 305.1088949 -455.79423584 300.45436463 -459.90625 295.87890625 C-460.5353125 295.17636719 -461.164375 294.47382812 -461.8125 293.75 C-462.68841797 292.78320312 -462.68841797 292.78320312 -463.58203125 291.796875 C-465 290 -465 290 -466 287 C-466.66 286.34 -467.32 285.68 -468 285 C-468.93946321 283.6615479 -469.85296714 282.30475169 -470.75 280.9375 C-472.36075666 278.48788963 -473.97197759 276.04118957 -475.62109375 273.6171875 C-483 262.76044264 -483 262.76044264 -483 259 C-483.99 258.67 -484.98 258.34 -486 258 C-487.16796875 255.78515625 -487.16796875 255.78515625 -488.1875 253.0625 C-488.53167969 252.16660156 -488.87585938 251.27070312 -489.23046875 250.34765625 C-490 248 -490 248 -490 246 C-490.66 245.67 -491.32 245.34 -492 245 C-495.26483294 239.20755447 -497.26776259 233.40402922 -499 227 C-499.66 227 -500.32 227 -501 227 C-502.00777029 224.25262623 -503.00641446 221.50250048 -504 218.75 C-504.28617188 217.97269531 -504.57234375 217.19539062 -504.8671875 216.39453125 C-505.13789063 215.64042969 -505.40859375 214.88632812 -505.6875 214.109375 C-506.06455078 213.07248535 -506.06455078 213.07248535 -506.44921875 212.01464844 C-507 210 -507 210 -507 206 C-507.66 206 -508.32 206 -509 206 C-510.00771516 202.08527676 -511.0048281 198.167929 -512 194.25 C-512.28617188 193.13882813 -512.57234375 192.02765625 -512.8671875 190.8828125 C-513.27324219 189.27792969 -513.27324219 189.27792969 -513.6875 187.640625 C-513.93886719 186.65610352 -514.19023438 185.67158203 -514.44921875 184.65722656 C-515 182 -515 182 -515 178 C-515.66 178 -516.32 178 -517 178 C-523.55072488 145.00322641 -523.55072488 145.00322641 -523 132 C-523.66 132 -524.32 132 -525 132 C-525 95.04 -525 58.08 -525 20 C-524.34 20 -523.68 20 -523 20 C-522.9175 19.154375 -522.835 18.30875 -522.75 17.4375 C-521.58944914 12.11830854 -520.2095602 8.44164748 -515.6171875 5.4453125 C-508.94067797 2 -508.94067797 2 -505 2 C-505 1.34 -505 0.68 -505 0 C-501.04 0 -497.08 0 -493 0 C-493 0.66 -493 1.32 -493 2 C-492.154375 2.061875 -491.30875 2.12375 -490.4375 2.1875 C-482.95024539 3.95721473 -479.19039469 8.60542437 -475.1640625 14.9140625 C-472.8577038 19.04693345 -472.88332317 22.4141766 -472.90234375 27.07421875 C-472.9037587 27.7580513 -472.90517365 28.44188385 -472.90663147 29.1464386 C-472.91222124 31.32683722 -472.92477178 33.50713251 -472.9375 35.6875 C-472.94251633 37.16731622 -472.947079 38.64713406 -472.95117188 40.12695312 C-472.96218729 43.75133557 -472.97944488 47.3756577 -473 51 C-472.36372681 50.30716919 -472.36372681 50.30716919 -471.71459961 49.6003418 C-469.08657329 47.1474424 -465.86485862 46.09481567 -462.5625 44.8125 C-461.89412109 44.53986328 -461.22574219 44.26722656 -460.53710938 43.98632812 C-457.09927956 42.62686916 -454.74884885 42 -451 42 C-451 41.34 -451 40.68 -451 40 C-447.60732806 38.98905456 -444.21040545 37.99319949 -440.8125 37 C-439.85279297 36.71382813 -438.89308594 36.42765625 -437.90429688 36.1328125 C-436.97294922 35.86210937 -436.04160156 35.59140625 -435.08203125 35.3125 C-434.22843018 35.06113281 -433.3748291 34.80976563 -432.49536133 34.55078125 C-429.91904455 33.98213135 -427.62952773 33.90116106 -425 34 C-425 33.34 -425 32.68 -425 32 C-414.91269257 30.20878634 -405.17731981 29.68498104 -394.9597168 29.73925781 C-392.56858893 29.74997271 -390.17821459 29.73929808 -387.78710938 29.7265625 C-378.02296329 29.71902582 -368.64305543 30.42730516 -359 32 C-359 32.66 -359 33.32 -359 34 C-357.865625 34.061875 -356.73125 34.12375 -355.5625 34.1875 C-347.82589939 35.00842547 -340.39828033 37.69812403 -333 40 C-333 40.66 -333 41.32 -333 42 C-331.88625 42.2475 -330.7725 42.495 -329.625 42.75 C-323.13054612 44.37935062 -316.99747995 46.91720878 -311.0625 50 C-306.23362337 52.49872055 -301.13011089 54.22709403 -296 56 C-296 56.66 -296 57.32 -296 58 C-295.31035156 58.18175781 -294.62070312 58.36351562 -293.91015625 58.55078125 C-287.86296885 60.16834166 -281.91183168 61.94180675 -276 64 C-276 64.66 -276 65.32 -276 66 C-275.00484375 66.1340625 -274.0096875 66.268125 -272.984375 66.40625 C-269.71983498 66.87214415 -266.4899986 67.46414865 -263.25463867 68.10424805 C-256.18705366 69.49951724 -249.20851168 70.64566456 -242 71 C-241.19175781 71.04125 -240.38351562 71.0825 -239.55078125 71.125 C-226.83500685 71.43656568 -213.85165734 69.82142736 -201.56640625 66.5859375 C-199 66 -199 66 -195 66 C-195 65.34 -195 64.68 -195 64 C-192.5433053 62.99580363 -190.08481647 61.99649499 -187.625 61 C-186.92632813 60.71382813 -186.22765625 60.42765625 -185.5078125 60.1328125 C-180.2265625 58 -180.2265625 58 -178 58 C-178 57.34 -178 56.68 -178 56 C-176.21118264 54.99491199 -174.41885304 53.99607264 -172.625 53 C-171.12839844 52.1646875 -171.12839844 52.1646875 -169.6015625 51.3125 C-167 50 -167 50 -165 50 C-165 49.34 -165 48.68 -165 48 C-164.25234375 47.61328125 -163.5046875 47.2265625 -162.734375 46.828125 C-161.74953125 46.30734375 -160.7646875 45.7865625 -159.75 45.25 C-158.77546875 44.73953125 -157.8009375 44.2290625 -156.796875 43.703125 C-154.06852184 42.04172559 -152.20987103 40.27907368 -150 38 C-148.11328125 36.8046875 -148.11328125 36.8046875 -146.3125 35.875 C-142.95938281 34.38383627 -142.95938281 34.38383627 -142 32 C-140.22293916 30.89896391 -138.40320915 29.86596696 -136.5625 28.875 C-135.57378906 28.33617187 -134.58507812 27.79734375 -133.56640625 27.2421875 C-131 26 -131 26 -129 26 C-128.67 25.01 -128.34 24.02 -128 23 C-125.92578125 21.75390625 -125.92578125 21.75390625 -123.3125 20.5625 C-120.32969411 19.15336681 -117.7279241 17.81294782 -115 15.9375 C-110.24896635 12.8691241 -104.73425319 10 -99 10 C-99 9.34 -99 8.68 -99 8 C-95.94131492 6.98806371 -92.87750729 5.9926063 -89.8125 5 C-88.94818359 4.71382813 -88.08386719 4.42765625 -87.19335938 4.1328125 C-86.35224609 3.86210937 -85.51113281 3.59140625 -84.64453125 3.3125 C-83.87471924 3.06113281 -83.10490723 2.80976563 -82.31176758 2.55078125 C-79.80203413 1.95283441 -77.57077005 1.90456538 -75 2 C-75 1.34 -75 0.68 -75 0 C-50.80205762 -5.05000537 -24.19794238 -5.05000537 0 0 Z M-79 56 C-79 56.66 -79 57.32 -79 58 C-79.69480469 58.11214844 -80.38960937 58.22429687 -81.10546875 58.33984375 C-84.37032964 59.08446115 -87.23600205 60.24400088 -90.3125 61.5625 C-91.38113281 62.01753906 -92.44976563 62.47257812 -93.55078125 62.94140625 C-94.35902344 63.29074219 -95.16726563 63.64007813 -96 64 C-96 64.66 -96 65.32 -96 66 C-96.845625 66.2475 -97.69125 66.495 -98.5625 66.75 C-102.38427474 68.13973627 -105.51868063 69.91120838 -109 72 C-109 72.66 -109 73.32 -109 74 C-109.86625 74.2475 -110.7325 74.495 -111.625 74.75 C-115.21060064 76.07800024 -117.96327987 77.68630848 -121 80 C-121 80.66 -121 81.32 -121 82 C-121.680625 82.2475 -122.36125 82.495 -123.0625 82.75 C-127.06948357 84.45509939 -131.35324655 86.30334493 -134.41796875 89.4609375 C-136.3338867 91.32481817 -138.33534617 92.42620012 -140.6875 93.6875 C-141.89986328 94.34298828 -141.89986328 94.34298828 -143.13671875 95.01171875 C-144.05904297 95.50091797 -144.05904297 95.50091797 -145 96 C-145 96.66 -145 97.32 -145 98 C-145.66 98.2475 -146.32 98.495 -147 98.75 C-150.76360907 100.31817045 -154.3711424 102.14505046 -158 104 C-158 104.66 -158 105.32 -158 106 C-158.556875 106.18175781 -159.11375 106.36351562 -159.6875 106.55078125 C-164.84196991 108.24862185 -169.93010615 110.06422235 -175 112 C-175 112.66 -175 113.32 -175 114 C-175.93392578 114.16822266 -175.93392578 114.16822266 -176.88671875 114.33984375 C-181.23630366 115.26215222 -185.51659385 116.41884713 -189.8125 117.5625 C-190.69615234 117.79646484 -191.57980469 118.03042969 -192.49023438 118.27148438 C-194.66051561 118.84631562 -196.83042042 119.42252721 -199 120 C-199 120.66 -199 121.32 -199 122 C-199.76183594 122.06058594 -200.52367187 122.12117187 -201.30859375 122.18359375 C-202.34113281 122.26738281 -203.37367188 122.35117187 -204.4375 122.4375 C-205.44683594 122.51871094 -206.45617187 122.59992188 -207.49609375 122.68359375 C-209.9912151 122.90890571 -212.48112126 123.19553719 -214.96484375 123.5234375 C-220.99647283 124.20081338 -227.03591897 124.18603506 -233.09960938 124.18530273 C-235.10030214 124.18747321 -237.10095567 124.20593966 -239.1015625 124.22460938 C-247.12928778 124.23646133 -254.77940425 123.66481897 -262.69091797 122.4309082 C-265.83911743 122.02095011 -268.82992976 121.92380508 -272 122 C-272 121.34 -272 120.68 -272 120 C-280.95504804 117.68539536 -289.85902974 115.47185114 -299 114 C-299 113.34 -299 112.68 -299 112 C-301.60197202 110.99394407 -304.20629362 109.99497475 -306.8125 109 C-307.55048828 108.71382812 -308.28847656 108.42765625 -309.04882812 108.1328125 C-309.76103516 107.86210938 -310.47324219 107.59140625 -311.20703125 107.3125 C-312.18893433 106.93544922 -312.18893433 106.93544922 -313.19067383 106.55078125 C-315.16311143 105.85439094 -315.16311143 105.85439094 -318 106 C-318 105.34 -318 104.68 -318 104 C-320.2463236 102.99095625 -322.49643937 101.9926398 -324.75 101 C-325.38421875 100.71382812 -326.0184375 100.42765625 -326.671875 100.1328125 C-330.08417104 98.63993298 -332.20781917 98 -336 98 C-336 97.34 -336 96.68 -336 96 C-336.56920166 95.80365967 -337.13840332 95.60731934 -337.72485352 95.4050293 C-340.33832969 94.50184463 -342.95041572 93.59470188 -345.5625 92.6875 C-346.45775391 92.37876953 -347.35300781 92.07003906 -348.27539062 91.75195312 C-352.11719168 90.41506265 -355.84841254 89.06937336 -359.55078125 87.375 C-363.87582881 85.65085873 -368.02821706 84.93921681 -372.625 84.3125 C-373.99664307 84.12469971 -373.99664307 84.12469971 -375.39599609 83.93310547 C-394.1132757 81.57943558 -412.89354892 82.50595811 -431 88 C-431 88.66 -431 89.32 -431 90 C-432.00160156 90.11214844 -433.00320313 90.22429687 -434.03515625 90.33984375 C-438.03829247 90.91172035 -441.64446451 92.15365825 -445.4375 93.5625 C-447.29181641 94.24505859 -447.29181641 94.24505859 -449.18359375 94.94140625 C-450.57771484 95.46541016 -450.57771484 95.46541016 -452 96 C-452 96.66 -452 97.32 -452 98 C-453.2375 98.350625 -454.475 98.70125 -455.75 99.0625 C-459.84357978 100.46619961 -463.708536 102.15458661 -467.5625 104.125 C-469.11130859 104.90230469 -469.11130859 104.90230469 -470.69140625 105.6953125 C-473.39789939 107.9174742 -473.39789939 107.9174742 -473.43359375 111.86328125 C-473.32671328 113.57828278 -473.1770164 115.29081339 -473 117 C-472.90017822 118.07540039 -472.80035645 119.15080078 -472.69750977 120.25878906 C-472.33572066 123.86519471 -471.924821 127.46300311 -471.5 131.0625 C-471.35691406 132.30966797 -471.21382813 133.55683594 -471.06640625 134.84179688 C-470.71545379 137.89508332 -470.3598759 140.94775468 -470 144 C-466.13525139 144 -463.79505542 142.65507584 -460.3125 141 C-459.13300781 140.443125 -457.95351563 139.88625 -456.73828125 139.3125 C-455.83464844 138.879375 -454.93101562 138.44625 -454 138 C-454 137.34 -454 136.68 -454 136 C-452.74316406 135.83177734 -452.74316406 135.83177734 -451.4609375 135.66015625 C-447.66343766 134.93580244 -444.25153492 133.77179115 -440.625 132.4375 C-439.98433594 132.20353516 -439.34367187 131.96957031 -438.68359375 131.72851562 C-437.1206839 131.15700381 -435.56009273 130.57915771 -434 130 C-434 129.34 -434 128.68 -434 128 C-432.26943359 127.79890625 -432.26943359 127.79890625 -430.50390625 127.59375 C-426.27705949 127.06527785 -422.11641221 126.31875874 -417.9375 125.5 C-410.01078452 123.95593392 -402.38710988 122.84370251 -394.3125 122.83203125 C-393.49233398 122.82870285 -392.67216797 122.82537445 -391.82714844 122.82194519 C-390.09587154 122.81690453 -388.36458501 122.81453598 -386.63330078 122.81469727 C-384.03531032 122.81252946 -381.43775825 122.79439494 -378.83984375 122.77539062 C-365.31904156 122.72920734 -352.58165809 123.75588529 -339.48828125 127.4140625 C-336.77713836 128.15280645 -336.77713836 128.15280645 -333 128 C-333 128.66 -333 129.32 -333 130 C-330.23113877 131.00577013 -327.46015896 132.00480147 -324.6875 133 C-323.90181641 133.28617188 -323.11613281 133.57234375 -322.30664062 133.8671875 C-321.54931641 134.13789062 -320.79199219 134.40859375 -320.01171875 134.6875 C-319.31522217 134.93886719 -318.61872559 135.19023438 -317.90112305 135.44921875 C-315.849632 136.13913536 -315.849632 136.13913536 -313 136 C-313 136.66 -313 137.32 -313 138 C-310.89915791 139.00696568 -308.79420511 140.0053589 -306.6875 141 C-305.51574219 141.556875 -304.34398437 142.11375 -303.13671875 142.6875 C-300.10545833 144.19300084 -300.10545833 144.19300084 -297 144 C-297 144.66 -297 145.32 -297 146 C-294.89915791 147.00696568 -292.79420511 148.0053589 -290.6875 149 C-289.51574219 149.556875 -288.34398437 150.11375 -287.13671875 150.6875 C-284.10545833 152.19300084 -284.10545833 152.19300084 -281 152 C-281 152.66 -281 153.32 -281 154 C-278.7536764 155.00904375 -276.50356063 156.0073602 -274.25 157 C-273.61578125 157.28617188 -272.9815625 157.57234375 -272.328125 157.8671875 C-268.91582896 159.36006702 -266.79218083 160 -263 160 C-263 160.66 -263 161.32 -263 162 C-234.05028797 173.56093246 -207.53964038 176.37023173 -177 170 C-177 169.34 -177 168.68 -177 168 C-176.20335937 167.81824219 -175.40671875 167.63648438 -174.5859375 167.44921875 C-169.02408245 166.12980058 -163.95275035 164.88910437 -159 162 C-159 161.34 -159 160.68 -159 160 C-158.27425781 159.88785156 -157.54851562 159.77570313 -156.80078125 159.66015625 C-153.87436007 158.97038613 -151.77712191 157.94489186 -149.1875 156.4375 C-148.39730469 155.98246094 -147.60710937 155.52742188 -146.79296875 155.05859375 C-145.90544922 154.53458984 -145.90544922 154.53458984 -145 154 C-145 153.34 -145 152.68 -145 152 C-144.113125 151.7525 -143.22625 151.505 -142.3125 151.25 C-138.86843744 149.95035375 -136.66975197 148.51270773 -134 146 C-134 145.34 -134 144.68 -134 144 C-133.27554687 143.74992187 -132.55109375 143.49984375 -131.8046875 143.2421875 C-128.75742396 141.89256382 -126.6635199 140.27422611 -124.125 138.125 C-121.19880118 135.71339352 -118.39306552 133.50481495 -115.0625 131.6875 C-112.11308088 130.25079812 -112.11308088 130.25079812 -110.5703125 128.5546875 C-108.23874503 126.24631971 -105.47048199 124.81806256 -102.64453125 123.18359375 C-102.10183594 122.79300781 -101.55914063 122.40242187 -101 122 C-101 121.34 -101 120.68 -101 120 C-100.44828125 119.88785156 -99.8965625 119.77570313 -99.328125 119.66015625 C-96.59934789 118.88639227 -94.27227057 117.73182306 -91.75 116.4375 C-90.85796875 115.98246094 -89.9659375 115.52742187 -89.046875 115.05859375 C-88.37140625 114.70925781 -87.6959375 114.35992188 -87 114 C-87 113.34 -87 112.68 -87 112 C-85.97326172 111.83177734 -85.97326172 111.83177734 -84.92578125 111.66015625 C-81.52261695 110.89228607 -78.43256902 109.71586052 -75.1875 108.4375 C-73.44533203 107.75494141 -73.44533203 107.75494141 -71.66796875 107.05859375 C-70.78753906 106.70925781 -69.90710938 106.35992188 -69 106 C-69 105.34 -69 104.68 -69 104 C-44.00895522 98.89365672 -44.00895522 98.89365672 -34 98 C-34 97.34 -34 96.68 -34 96 C-31.35375716 96.14021805 -28.70815422 96.28689776 -26.0625 96.4375 C-25.30775391 96.47681641 -24.55300781 96.51613281 -23.77539062 96.55664062 C-18.11328125 96.88671875 -18.11328125 96.88671875 -17 98 C-14.58168921 98.40403485 -12.18063589 98.75352086 -9.75 99.0625 C-9.08097656 99.15337891 -8.41195313 99.24425781 -7.72265625 99.33789062 C-4.1250388 99.80791334 -0.62792471 100.10546293 3 100 C4.18400916 86.00332032 4.1044444 72.0373272 4 58 C3.34 58 2.68 58 2 58 C2 57.34 2 56.68 2 56 C0.10841796 55.36224894 -1.78863466 54.74072675 -3.6875 54.125 C-4.74324219 53.77695312 -5.79898437 53.42890625 -6.88671875 53.0703125 C-16.98891758 50.20745298 -27.30658631 49.63887535 -37.75 49.6875 C-38.96993652 49.69096436 -40.18987305 49.69442871 -41.44677734 49.69799805 C-54.46062082 49.85401246 -66.65641291 51.72372044 -79 56 Z M-46 152 C-46 152.66 -46 153.32 -46 154 C-46.9075 154.061875 -47.815 154.12375 -48.75 154.1875 C-57.35497352 155.46358826 -65.20535566 159.95770973 -72.6875 164.1875 C-73.29988525 164.53240479 -73.91227051 164.87730957 -74.54321289 165.23266602 C-77.84081398 167.03949133 -77.84081398 167.03949133 -80 170 C-82.69694871 171.56021826 -85.4629674 172.95174038 -88.23828125 174.3671875 C-90.97550973 175.9855206 -92.81958823 177.71150748 -95 180 C-95.886875 180.515625 -96.77375 181.03125 -97.6875 181.5625 C-100.30410442 182.84772096 -100.30410442 182.84772096 -101 186 C-102.64991582 186.70710678 -104.3207762 187.36562656 -106 188 C-109.27310553 189.90356987 -109.27310553 189.90356987 -112 192 C-112 192.66 -112 193.32 -112 194 C-112.680625 194.2475 -113.36125 194.495 -114.0625 194.75 C-117.56865083 196.24197908 -120.71620368 198.06835511 -124 200 C-124 200.66 -124 201.32 -124 202 C-124.8765625 202.26167969 -125.753125 202.52335937 -126.65625 202.79296875 C-129.95936842 203.98533276 -132.54126938 205.43836024 -135.5 207.3125 C-142.06990216 211.25774275 -148.73081097 213.66654731 -156 216 C-156 216.66 -156 217.32 -156 218 C-157.27875 218.2475 -158.5575 218.495 -159.875 218.75 C-167.94652068 220.35963852 -175.9697402 222.1980027 -184 224 C-184 224.66 -184 225.32 -184 226 C-189.56843749 226.02481649 -195.13684241 226.04291507 -200.70532227 226.05493164 C-202.59758058 226.05994403 -204.48983505 226.06675567 -206.38208008 226.07543945 C-209.11019848 226.08764098 -211.83826543 226.09325938 -214.56640625 226.09765625 C-215.82463951 226.10539818 -215.82463951 226.10539818 -217.10829163 226.11329651 C-221.84412546 226.11374347 -226.33915631 225.87230539 -231 225 C-231.33 224.67 -231.66 224.34 -232 224 C-234.62295596 223.50408805 -237.24066339 223.05151697 -239.875 222.625 C-245.97455446 221.60382498 -251.87756539 220.36401059 -257.80078125 218.55078125 C-260.2688374 217.83803933 -260.2688374 217.83803933 -264 218 C-264 217.34 -264 216.68 -264 216 C-266.74737377 214.99222971 -269.49749952 213.99358554 -272.25 213 C-273.02730469 212.71382812 -273.80460938 212.42765625 -274.60546875 212.1328125 C-275.35957031 211.86210938 -276.11367188 211.59140625 -276.890625 211.3125 C-277.58188477 211.06113281 -278.27314453 210.80976562 -278.98535156 210.55078125 C-281.29497112 209.82419279 -281.29497112 209.82419279 -285 210 C-285 209.34 -285 208.68 -285 208 C-287.26807204 206.9932996 -289.53907754 205.99448234 -291.8125 205 C-292.45509766 204.71382812 -293.09769531 204.42765625 -293.75976562 204.1328125 C-296.67756469 202.86288959 -298.78265714 202 -302 202 C-302 201.34 -302 200.68 -302 200 C-304.10084209 198.99303432 -306.20579489 197.9946411 -308.3125 197 C-309.48425781 196.443125 -310.65601563 195.88625 -311.86328125 195.3125 C-314.89454167 193.80699916 -314.89454167 193.80699916 -318 194 C-318 193.34 -318 192.68 -318 192 C-320.26807204 190.9932996 -322.53907754 189.99448234 -324.8125 189 C-325.45509766 188.71382812 -326.09769531 188.42765625 -326.75976562 188.1328125 C-329.67756469 186.86288959 -331.78265714 186 -335 186 C-335 185.34 -335 184.68 -335 184 C-338.05868508 182.98806371 -341.12249271 181.9926063 -344.1875 181 C-345.48397461 180.57074219 -345.48397461 180.57074219 -346.80664062 180.1328125 C-347.64775391 179.86210938 -348.48886719 179.59140625 -349.35546875 179.3125 C-350.12528076 179.06113281 -350.89509277 178.80976562 -351.68823242 178.55078125 C-354.19796587 177.95283441 -356.42922995 177.90456538 -359 178 C-359 177.34 -359 176.68 -359 176 C-375.87415983 172.17427955 -395.09242451 172.55700281 -412 176 C-412 176.66 -412 177.32 -412 178 C-412.65484375 178.09796875 -413.3096875 178.1959375 -413.984375 178.296875 C-421.27823666 179.49191448 -428.05096354 181.50174256 -435 184 C-435 184.66 -435 185.32 -435 186 C-435.69867188 186.11601563 -436.39734375 186.23203125 -437.1171875 186.3515625 C-440.29448712 187.06623965 -443.11628202 188.13079332 -446.125 189.375 C-447.67574219 190.00535156 -447.67574219 190.00535156 -449.2578125 190.6484375 C-451.79007682 191.89653359 -453.18682805 192.89401768 -455 195 C-455.66 195.66 -456.32 196.32 -457 197 C-455.35 201.29 -453.7 205.58 -452 210 C-451.34 210 -450.68 210 -450 210 C-449.74476563 210.81791016 -449.74476563 210.81791016 -449.484375 211.65234375 C-446.25647365 222.1941222 -446.25647365 222.1941222 -440 231 C-438.81439002 233.27851795 -437.9485712 235.60598697 -437 238 C-436.278125 237.71125 -435.55625 237.4225 -434.8125 237.125 C-432.20833333 236.08333333 -429.60416667 235.04166667 -427 234 C-427 233.34 -427 232.68 -427 232 C-421 230 -415 228 -409 226 C-409 225.34 -409 224.68 -409 224 C-407.948125 223.87625 -406.89625 223.7525 -405.8125 223.625 C-403.28503024 223.31847357 -400.78860791 222.96225548 -398.28173828 222.51464844 C-389.19022183 220.92036669 -380.26001364 220.60257373 -371.0625 220.625 C-369.91687592 220.62481873 -369.91687592 220.62481873 -368.74810791 220.62463379 C-353.44861975 220.65899042 -338.10374512 221.40230548 -324.06640625 228.03320312 C-317.77624411 231.00002054 -317.77624411 231.00002054 -311 232 C-311 232.66 -311 233.32 -311 234 C-308.5433053 235.00419637 -306.08481647 236.00350501 -303.625 237 C-302.92632812 237.28617188 -302.22765625 237.57234375 -301.5078125 237.8671875 C-297.87114039 239.44524399 -297.87114039 239.44524399 -294 240 C-294 240.66 -294 241.32 -294 242 C-291.56495491 243.0063655 -289.12729136 244.00526413 -286.6875 245 C-285.99720703 245.28617188 -285.30691406 245.57234375 -284.59570312 245.8671875 C-281.58454326 247.08910744 -279.28113016 248 -276 248 C-276 248.66 -276 249.32 -276 250 C-273.41958904 251.00816056 -270.83613056 252.0067111 -268.25 253 C-267.52039063 253.28617188 -266.79078125 253.57234375 -266.0390625 253.8671875 C-265.33007812 254.13789062 -264.62109375 254.40859375 -263.890625 254.6875 C-263.24125977 254.93886719 -262.59189453 255.19023438 -261.92285156 255.44921875 C-259.69247026 256.18357727 -259.69247026 256.18357727 -256 256 C-256 256.66 -256 257.32 -256 258 C-244.61659969 261.943635 -232.08283772 264.65906388 -220 264 C-220 264.66 -220 265.32 -220 266 C-216.18751574 266.02887236 -212.3750593 266.04675492 -208.5625 266.0625 C-207.47388672 266.07087891 -206.38527344 266.07925781 -205.26367188 266.08789062 C-203.71196289 266.09272461 -203.71196289 266.09272461 -202.12890625 266.09765625 C-200.69140015 266.10551147 -200.69140015 266.10551147 -199.22485352 266.11352539 C-197.02714661 266.2505313 -197.02714661 266.2505313 -196 265 C-194.68073281 264.75143701 -193.35118781 264.55683719 -192.01953125 264.38671875 C-191.19098633 264.27497314 -190.36244141 264.16322754 -189.50878906 264.0480957 C-188.61901367 263.92909912 -187.72923828 263.81010254 -186.8125 263.6875 C-178.25595164 262.48715954 -170.22822874 260.68371037 -162 258 C-162 257.34 -162 256.68 -162 256 C-160.865625 255.7525 -159.73125 255.505 -158.5625 255.25 C-153.77458392 254.06800998 -149.43930767 252.11689209 -145 250 C-145 249.34 -145 248.68 -145 248 C-144.13375 247.7525 -143.2675 247.505 -142.375 247.25 C-138.78939936 245.92199976 -136.03672013 244.31369152 -133 242 C-133 241.34 -133 240.68 -133 240 C-132.319375 239.7525 -131.63875 239.505 -130.9375 239.25 C-125.42062278 236.90239267 -121.185567 234.32058529 -117 230 C-115 228.66666667 -113 227.33333333 -111 226 C-110.67 225.34 -110.34 224.68 -110 224 C-108.39637121 223.07876644 -106.78950399 222.16277435 -105.16796875 221.2734375 C-101.77803086 219.28223074 -98.62242741 216.9735941 -95.4296875 214.68359375 C-93 213 -93 213 -90.1953125 211.41015625 C-89.47085937 210.94480469 -88.74640625 210.47945312 -88 210 C-88 209.34 -88 208.68 -88 208 C-87.41992188 207.81824219 -86.83984375 207.63648438 -86.2421875 207.44921875 C-81.60852707 205.9581894 -77.30237645 204.31666424 -73 202 C-73 201.34 -73 200.68 -73 200 C-72.3709375 199.81824219 -71.741875 199.63648438 -71.09375 199.44921875 C-65.62938892 197.84447416 -60.30780262 196.06414546 -55 194 C-55 193.34 -55 192.68 -55 192 C-53.88882812 191.8659375 -52.77765625 191.731875 -51.6328125 191.59375 C-48.45405803 191.19692966 -45.28530794 190.75540745 -42.1171875 190.28125 C-32.07809269 188.78084955 -22.14731463 187.494575 -12 187 C-12 185.68 -12 184.36 -12 183 C-11.34 183 -10.68 183 -10 183 C-8.99028956 179.10661739 -7.99394645 175.20993415 -7 171.3125 C-6.71382812 170.20970703 -6.42765625 169.10691406 -6.1328125 167.97070312 C-5.72675781 166.3706543 -5.72675781 166.3706543 -5.3125 164.73828125 C-5.06113281 163.75899658 -4.80976562 162.77971191 -4.55078125 161.77075195 C-4.01929925 159.0970865 -3.89592226 156.71686266 -4 154 C-3.34 154 -2.68 154 -2 154 C-2 153.34 -2 152.68 -2 152 C-15.99795115 148.75409828 -32.06209674 148.34415652 -46 152 Z M-50.125 248.3125 C-50.90818604 248.66207764 -51.69137207 249.01165527 -52.49829102 249.37182617 C-62.28607915 253.87719214 -73.42132079 259.19222891 -81 267 C-82.8293373 268.32009994 -84.69553985 269.56784326 -86.57421875 270.81640625 C-87.04472656 271.20699219 -87.51523437 271.59757812 -88 272 C-88 272.66 -88 273.32 -88 274 C-88.680625 274.2475 -89.36125 274.495 -90.0625 274.75 C-93.56865083 276.24197908 -96.71620368 278.06835511 -100 280 C-100 280.66 -100 281.32 -100 282 C-100.70125 282.2475 -101.4025 282.495 -102.125 282.75 C-105.39514548 284.17180238 -108.141122 285.87246288 -111 288 C-111 288.66 -111 289.32 -111 290 C-111.845625 290.2475 -112.69125 290.495 -113.5625 290.75 C-117.38427474 292.13973627 -120.51868063 293.91120838 -124 296 C-124 296.66 -124 297.32 -124 298 C-124.56847656 298.18175781 -125.13695312 298.36351562 -125.72265625 298.55078125 C-130.60701003 300.14084634 -135.31029027 301.90459778 -140 304 C-140 304.66 -140 305.32 -140 306 C-141.175625 306.2475 -142.35125 306.495 -143.5625 306.75 C-150.4332363 308.26948976 -157.21051348 310.15726716 -164 312 C-164 312.66 -164 313.32 -164 314 C-165.22847656 314.13277344 -166.45695313 314.26554687 -167.72265625 314.40234375 C-171.46476811 314.81667248 -175.19919495 315.27519862 -178.93359375 315.75390625 C-204.29063976 318.95244236 -233.29135041 320.68425358 -257.5546875 310.91015625 C-260.90648014 309.66260404 -264.32834206 308.66007647 -267.75 307.625 C-274.69946498 305.50274218 -281.33833637 302.90746422 -288 300 C-290.99106031 298.70549384 -292.71573622 298 -296 298 C-296 297.34 -296 296.68 -296 296 C-298.2898234 294.9955866 -300.5816599 293.99632388 -302.875 293 C-303.52597656 292.71382812 -304.17695313 292.42765625 -304.84765625 292.1328125 C-308.29638339 290.54074235 -308.29638339 290.54074235 -312 290 C-312 289.34 -312 288.68 -312 288 C-314.4566947 286.99580363 -316.91518353 285.99649499 -319.375 285 C-320.07367188 284.71382812 -320.77234375 284.42765625 -321.4921875 284.1328125 C-325.12885961 282.55475601 -325.12885961 282.55475601 -329 282 C-329 281.34 -329 280.68 -329 280 C-342.25627901 275.81285914 -342.25627901 275.81285914 -356 274 C-356 273.34 -356 272.68 -356 272 C-373.72083641 270.5312807 -373.72083641 270.5312807 -391 274 C-394.38818205 275.00857512 -397.77869045 276.00838442 -401.171875 277 C-404.09091935 277.80362994 -404.09091935 277.80362994 -406 280 C-405.29875 280.680625 -404.5975 281.36125 -403.875 282.0625 C-401.79123966 284.1286511 -399.91827103 286.29052703 -398.0625 288.5625 C-395.38742391 291.73829547 -392.50916507 293.7601074 -389 296 C-387.32758626 297.66089971 -385.66190479 299.32858502 -384 301 C-381.83014745 302.98344141 -379.60924805 304.90216691 -377.375 306.8125 C-376.80265625 307.31458984 -376.2303125 307.81667969 -375.640625 308.33398438 C-372.30452322 311.33258679 -372.30452322 311.33258679 -368 312 C-367.773125 312.598125 -367.54625 313.19625 -367.3125 313.8125 C-365.59046565 316.68255724 -363.99756972 317.5176853 -361 319 C-357.65501601 319.57154439 -357.65501601 319.57154439 -354.1875 319.6875 C-353.02605469 319.75324219 -351.86460937 319.81898438 -350.66796875 319.88671875 C-349.78753906 319.92410156 -348.90710938 319.96148438 -348 320 C-348 320.66 -348 321.32 -348 322 C-343.75166645 323.00717113 -339.50108076 324.00449375 -335.25 325 C-334.0434375 325.28617188 -332.836875 325.57234375 -331.59375 325.8671875 C-330.43359375 326.13789062 -329.2734375 326.40859375 -328.078125 326.6875 C-327.00981445 326.93886719 -325.94150391 327.19023438 -324.84082031 327.44921875 C-321.82780755 328.12689113 -321.82780755 328.12689113 -318 328 C-318 328.66 -318 329.32 -318 330 C-314.8980736 331.0070436 -311.79311902 332.00440805 -308.6875 333 C-307.80642578 333.28617188 -306.92535156 333.57234375 -306.01757812 333.8671875 C-304.74624023 334.27324219 -304.74624023 334.27324219 -303.44921875 334.6875 C-302.66893311 334.93886719 -301.88864746 335.19023438 -301.0847168 335.44921875 C-298.87596151 336.12771753 -298.87596151 336.12771753 -296 336 C-296 336.66 -296 337.32 -296 338 C-293.04329782 339.00486895 -290.08438423 340.00306024 -287.125 341 C-286.28324219 341.28617188 -285.44148438 341.57234375 -284.57421875 341.8671875 C-283.76855469 342.13789062 -282.96289062 342.40859375 -282.1328125 342.6875 C-281.38918457 342.93886719 -280.64555664 343.19023438 -279.87939453 343.44921875 C-278.00652686 344.09374494 -278.00652686 344.09374494 -276 344 C-276 344.66 -276 345.32 -276 346 C-272.14932582 347.01378468 -268.29397377 348.00852672 -264.4375 349 C-263.35146484 349.28617188 -262.26542969 349.57234375 -261.14648438 349.8671875 C-255.62684204 351.27645788 -250.70198744 352.39267632 -245 352 C-245 352.66 -245 353.32 -245 354 C-227.44393606 355.96942252 -210.52902362 356.35464496 -193 354 C-193 353.34 -193 352.68 -193 352 C-192.0203125 352.03867187 -191.040625 352.07734375 -190.03125 352.1171875 C-185.67609248 352.11499678 -181.70471119 351.1855801 -177.5 350.125 C-176.41912109 349.86396484 -176.41912109 349.86396484 -175.31640625 349.59765625 C-170.84432812 348.50591927 -166.4185256 347.29067458 -162 346 C-162 345.34 -162 344.68 -162 344 C-161.39414062 343.90203125 -160.78828125 343.8040625 -160.1640625 343.703125 C-153.72341254 342.5537167 -147.98543478 340.62340333 -142 338 C-142 337.34 -142 336.68 -142 336 C-141.21625 335.938125 -140.4325 335.87625 -139.625 335.8125 C-134.64711207 334.6967665 -130.47546306 332.39693773 -126 330 C-126 329.34 -126 328.68 -126 328 C-125.27039063 327.88398437 -124.54078125 327.76796875 -123.7890625 327.6484375 C-120.95254478 326.98896699 -118.89919365 326.05624382 -116.375 324.625 C-115.61960937 324.20476562 -114.86421875 323.78453125 -114.0859375 323.3515625 C-112.08671471 322.05618594 -110.67087765 320.67964866 -109 319 C-106.91708539 317.65785426 -104.78923086 316.42404163 -102.64453125 315.18359375 C-102.10183594 314.79300781 -101.55914063 314.40242188 -101 314 C-101 313.34 -101 312.68 -101 312 C-99.8553125 311.5978125 -99.8553125 311.5978125 -98.6875 311.1875 C-96.07686496 310.03396359 -94.92614911 309.01370135 -93 307 C-91.515 306.505 -91.515 306.505 -90 306 C-88.31267723 304.01739574 -86.64633943 302.0167658 -85 300 C-84.01 299.34 -83.02 298.68 -82 298 C-82 297.34 -82 296.68 -82 296 C-81.443125 295.7525 -80.88625 295.505 -80.3125 295.25 C-75.49258361 292.64463979 -72.35912801 289.25489548 -69 285 C-68.01 284.34 -67.02 283.68 -66 283 C-65.54625 282.21625 -65.0925 281.4325 -64.625 280.625 C-63 278 -63 278 -60.5625 276.0625 C-57.11724928 273.28949332 -54.47596151 270.1418268 -53.5 265.75 C-53.335 265.1725 -53.17 264.595 -53 264 C-52.401875 263.71125 -51.80375 263.4225 -51.1875 263.125 C-47.9934254 261.48233306 -46.7786789 259.04916382 -45 256 C-45 255.34 -45 254.68 -45 254 C-44.401875 253.814375 -43.80375 253.62875 -43.1875 253.4375 C-39.90018201 251.27726247 -39.35145313 248.64892345 -38 245 C-42.6733858 245 -45.95089686 246.43836737 -50.125 248.3125 Z " fill="#16C855" transform="translate(747,415)"/>
<path d="M0 0 C0.8146875 0.03931641 1.629375 0.07863281 2.46875 0.11914062 C6.44304749 0.32950653 10.24045451 0.62674916 14.125 1.5625 C14.96811119 4.78919416 15.79773868 8.01920918 16.625 11.25 C16.86347656 12.16201172 17.10195313 13.07402344 17.34765625 14.01367188 C17.57324219 14.89990234 17.79882812 15.78613281 18.03125 16.69921875 C18.24072266 17.51092529 18.45019531 18.32263184 18.66601562 19.15893555 C19.14772289 21.681493 19.20474843 24.00058183 19.125 26.5625 C19.785 26.5625 20.445 26.5625 21.125 26.5625 C21.104375 27.531875 21.08375 28.50125 21.0625 29.5 C20.76881501 32.43715895 20.76881501 32.43715895 22.125 33.5625 C22.53510145 36.02310868 22.88220737 38.46349899 23.1875 40.9375 C23.27837891 41.60394531 23.36925781 42.27039063 23.46289062 42.95703125 C24.20148728 48.83248434 24.21770676 54.64712188 24.125 60.5625 C23.48175781 60.58755615 22.83851563 60.6126123 22.17578125 60.63842773 C9.48113264 61.13756647 -3.20017675 61.68644604 -15.875 62.5625 C-15.875 63.2225 -15.875 63.8825 -15.875 64.5625 C-24.50427587 66.76799731 -33.10839098 68.96090797 -41.875 70.5625 C-41.875 71.2225 -41.875 71.8825 -41.875 72.5625 C-42.98359375 73.03300781 -44.0921875 73.50351562 -45.234375 73.98828125 C-46.69803775 74.61690564 -48.16157275 75.24582756 -49.625 75.875 C-50.35460937 76.18373047 -51.08421875 76.49246094 -51.8359375 76.81054688 C-55.56676034 78.42158401 -58.64044835 80.07438335 -61.875 82.5625 C-64.125 82.25 -64.125 82.25 -65.875 81.5625 C-66.205 79.5825 -66.535 77.6025 -66.875 75.5625 C-67.535 75.5625 -68.195 75.5625 -68.875 75.5625 C-69.88719846 71.85738701 -70.882566 68.14795143 -71.875 64.4375 C-72.16117188 63.39078125 -72.44734375 62.3440625 -72.7421875 61.265625 C-73.01289062 60.24726563 -73.28359375 59.22890625 -73.5625 58.1796875 C-73.81386719 57.24753418 -74.06523438 56.31538086 -74.32421875 55.35498047 C-74.91485386 52.3604395 -74.96928371 49.60707826 -74.875 46.5625 C-75.535 46.5625 -76.195 46.5625 -76.875 46.5625 C-76.97296875 45.94761719 -77.0709375 45.33273438 -77.171875 44.69921875 C-78.05832031 39.74386734 -78.05832031 39.74386734 -80.5 35.4375 C-84.04572346 34.13118083 -87.26293359 34.57604244 -90.875 35.5625 C-94.12349977 37.28476496 -94.12349977 37.28476496 -94.875 40.5625 C-95.43429066 50.09645481 -94.47163546 59.18226665 -92.875 68.5625 C-92.215 68.5625 -91.555 68.5625 -90.875 68.5625 C-90.76285156 69.19800781 -90.65070312 69.83351563 -90.53515625 70.48828125 C-89.46592633 75.46747619 -88.00162395 80.33711698 -86.60351562 85.23242188 C-86.38244141 86.01552734 -86.16136719 86.79863281 -85.93359375 87.60546875 C-85.62893188 88.67317505 -85.62893188 88.67317505 -85.31811523 89.76245117 C-84.875 91.5625 -84.875 91.5625 -84.875 93.5625 C-84.215 93.5625 -83.555 93.5625 -82.875 93.5625 C-82.76285156 94.09875 -82.65070312 94.635 -82.53515625 95.1875 C-81.42415667 99.18446889 -79.60569116 102.89804411 -77.93359375 106.6875 C-76.875 109.5625 -76.875 109.5625 -76.875 113.5625 C-73.59726496 112.81099977 -73.59726496 112.81099977 -71.875 109.5625 C-69.81640625 108.17578125 -69.81640625 108.17578125 -67.4375 106.875 C-66.65503906 106.43800781 -65.87257813 106.00101562 -65.06640625 105.55078125 C-62.875 104.5625 -62.875 104.5625 -59.875 104.5625 C-59.38 103.0775 -59.38 103.0775 -58.875 101.5625 C-56.49308416 100.13035438 -54.18328035 98.88782002 -51.6875 97.6875 C-50.97440674 97.33816406 -50.26131348 96.98882812 -49.52661133 96.62890625 C-32.71477708 88.5625 -32.71477708 88.5625 -25.875 88.5625 C-25.875 87.9025 -25.875 87.2425 -25.875 86.5625 C-8.69312326 82.59881268 7.56568685 82.08061047 25.125 82.5625 C24.03787386 107.79526983 24.03787386 107.79526983 21.125 118.5625 C20.465 118.5625 19.805 118.5625 19.125 118.5625 C19.09921875 119.14515625 19.0734375 119.7278125 19.046875 120.328125 C17.98372762 135.69543708 10.54733941 150.45238392 2.46875 163.34375 C1.15361616 165.51525006 0.03229614 167.71088079 -1.0625 170 C-2.67232627 173.16414128 -3.502061 174.21148192 -5.875 176.5625 C-7.95640645 179.23657812 -10.00025363 181.93325257 -12.02734375 184.6484375 C-14.7468656 188.24120031 -17.66576893 191.38607197 -20.875 194.5625 C-21.473125 195.531875 -22.07125 196.50125 -22.6875 197.5 C-25.10138347 200.87943685 -27.59811442 202.81680045 -30.97265625 205.16796875 C-32.88362033 206.49210713 -32.88362033 206.49210713 -34.3671875 208.0703125 C-36.08866504 209.77395089 -37.88298908 210.97121096 -39.9375 212.25 C-40.62972656 212.68699219 -41.32195312 213.12398437 -42.03515625 213.57421875 C-43.875 214.5625 -43.875 214.5625 -45.875 214.5625 C-46.205 215.5525 -46.535 216.5425 -46.875 217.5625 C-48.8359375 218.94921875 -48.8359375 218.94921875 -51.25 220.25 C-52.04148437 220.68699219 -52.83296875 221.12398437 -53.6484375 221.57421875 C-55.875 222.5625 -55.875 222.5625 -58.875 222.5625 C-58.875 223.2225 -58.875 223.8825 -58.875 224.5625 C-68.12522189 229.22314967 -77.27869482 233.72190583 -87.25 236.625 C-87.94407959 236.82826904 -88.63815918 237.03153809 -89.35327148 237.2409668 C-92.9342236 238.22384357 -96.16140894 238.78474194 -99.875 238.5625 C-99.875 239.2225 -99.875 239.8825 -99.875 240.5625 C-107.30140842 242.17131575 -114.28001039 242.82692904 -121.875 242.5625 C-122.18248219 236.7741477 -121.11869016 232.12469302 -119.375 226.625 C-119.13652344 225.84576172 -118.89804687 225.06652344 -118.65234375 224.26367188 C-118.06857822 222.36059624 -117.47300024 220.46115078 -116.875 218.5625 C-116.215 218.5625 -115.555 218.5625 -114.875 218.5625 C-114.7409375 217.41910156 -114.606875 216.27570313 -114.46875 215.09765625 C-114.01337138 211.44901519 -113.42037199 207.84224823 -112.77075195 204.22387695 C-107.95104003 177.14012869 -108.23691407 148.37122813 -114.2890625 121.49609375 C-114.875 118.5625 -114.875 118.5625 -114.875 114.5625 C-115.535 114.5625 -116.195 114.5625 -116.875 114.5625 C-117.88174459 111.29370384 -118.87922489 108.0221529 -119.875 104.75 C-120.16117188 103.82123047 -120.44734375 102.89246094 -120.7421875 101.93554688 C-121.01289062 101.04287109 -121.28359375 100.15019531 -121.5625 99.23046875 C-121.81386719 98.40828857 -122.06523438 97.5861084 -122.32421875 96.73901367 C-122.875 94.5625 -122.875 94.5625 -122.875 91.5625 C-123.535 91.5625 -124.195 91.5625 -124.875 91.5625 C-125.8794134 89.2726766 -126.87867612 86.9808401 -127.875 84.6875 C-128.16117188 84.03652344 -128.44734375 83.38554687 -128.7421875 82.71484375 C-130.875 77.7890625 -130.875 77.7890625 -130.875 75.5625 C-131.535 75.2325 -132.195 74.9025 -132.875 74.5625 C-133.92144066 72.92459288 -134.9148183 71.25241979 -135.875 69.5625 C-136.7103125 68.2321875 -136.7103125 68.2321875 -137.5625 66.875 C-138.875 64.5625 -138.875 64.5625 -138.875 62.5625 C-139.535 62.2325 -140.195 61.9025 -140.875 61.5625 C-141.875 60.5625 -141.875 60.5625 -142.32421875 58.4140625 C-141.63111611 54.01436748 -138.8393771 51.91597286 -135.6875 48.9375 C-134.8202832 48.07898438 -134.8202832 48.07898438 -133.93554688 47.203125 C-130.77665143 44.13346389 -127.73081325 41.73688155 -123.875 39.5625 C-123.05 38.7375 -122.225 37.9125 -121.375 37.0625 C-118.98774206 34.67524206 -116.77390505 33.24081345 -113.875 31.5625 C-113.46765625 31.12550781 -113.0603125 30.68851563 -112.640625 30.23828125 C-101.74892512 19.90080503 -78.05657988 7.5625 -62.875 7.5625 C-62.875 6.9025 -62.875 6.2425 -62.875 5.5625 C-52.39987103 3.22206988 -42.01238572 1.27243789 -31.3125 0.3125 C-29.99548096 0.19285889 -29.99548096 0.19285889 -28.65185547 0.07080078 C-19.08684064 -0.70902438 -9.57352402 -0.52233397 0 0 Z " fill="#16C855" transform="translate(643.875,200.4375)"/>
<path d="M0 0 C9.56459278 2.35499693 18.75083456 5.64948169 28 9 C28 9.66 28 10.32 28 11 C28.78375 11.061875 29.5675 11.12375 30.375 11.1875 C35.35288793 12.3032335 39.52453694 14.60306227 44 17 C44 17.66 44 18.32 44 19 C45.09441406 19.17402344 45.09441406 19.17402344 46.2109375 19.3515625 C49.04745522 20.01103301 51.10080635 20.94375618 53.625 22.375 C54.38039063 22.79523438 55.13578125 23.21546875 55.9140625 23.6484375 C57.91018124 24.94180282 59.35191531 26.30197335 61 28 C62.010625 28.66 63.02125 29.32 64.0625 30 C67 32 67 32 69 35 C69.72058594 35.41507813 70.44117188 35.83015625 71.18359375 36.2578125 C75.01796266 38.62969674 77.91841407 41.66756557 81.0625 44.875 C81.97999023 45.79345703 81.97999023 45.79345703 82.91601562 46.73046875 C91.4487371 55.3462113 91.4487371 55.3462113 93 60 C93.804375 60.763125 94.60875 61.52625 95.4375 62.3125 C98.16491051 65.17295492 99.03252833 67.21806528 100 71 C100.66 71 101.32 71 102 71 C103.00460531 73.12282669 104.00355602 75.24833021 105 77.375 C105.556875 78.55835938 106.11375 79.74171875 106.6875 80.9609375 C108 84 108 84 108 86 C108.66 86.33 109.32 86.66 110 87 C113.198616 92.7595017 115.56056609 98.40849136 116 105 C116.66 105 117.32 105 118 105 C119.02847224 109.09739243 120.01976748 113.20333686 121 117.3125 C121.26683594 118.41368164 121.26683594 118.41368164 121.5390625 119.53710938 C122.98936523 125.63595705 124.15940207 131.63886526 124.0625 137.9375 C124.05347656 138.70964844 124.04445313 139.48179687 124.03515625 140.27734375 C124.01775391 141.13005859 124.01775391 141.13005859 124 142 C124.66 142 125.32 142 126 142 C126 154.87 126 167.74 126 181 C125.34 181 124.68 181 124 181 C124.02320313 181.60585938 124.04640625 182.21171875 124.0703125 182.8359375 C124.20628078 189.14875029 123.46211966 194.86431929 122 201 C117.12241239 201 115.29895849 199.26319742 112 196 C110.64172029 194.35360035 109.30745749 192.68704193 108 191 C105.28509102 188.13833918 102.46039445 185.52553788 99.4375 183 C96.55772117 180.56804854 94.30342609 177.99445392 92 175 C90.3545622 173.31237149 88.68711423 171.6459651 87 170 C83.73606823 166.81567632 80.83510098 163.56673994 78 160 C77.38125 159.4225 76.7625 158.845 76.125 158.25 C73.52248238 155.49439311 71.58331043 152.48986531 69.5234375 149.31640625 C68.13416614 147.20400133 66.68397893 145.16211438 65.1875 143.125 C63 140 63 140 62 137 C61.53980469 136.56816406 61.07960938 136.13632812 60.60546875 135.69140625 C58.40187391 133.36985743 57.5089026 130.8943749 56.3125 127.9375 C55.87550781 126.87402344 55.43851562 125.81054688 54.98828125 124.71484375 C54 122 54 122 54 120 C53.34 119.67 52.68 119.34 52 119 C48.54184713 113.06980816 47.06561317 106.71616721 46 100 C45.34 100 44.68 100 44 100 C42.65984667 94.76317593 41.56412593 89.47349002 40.4375 84.1875 C40.20353516 83.11951172 39.96957031 82.05152344 39.72851562 80.95117188 C38.57787605 75.52672816 37.69138085 70.54723144 38 65 C37.34 65 36.68 65 36 65 C35.84144531 64.38511719 35.68289063 63.77023437 35.51953125 63.13671875 C34.04875246 57.98169459 34.04875246 57.98169459 30.75 53.875 C26.20813081 52.4298598 22.4183924 53.52720253 18 55 C15.95582395 62.92118219 17.09676903 70.82364128 18.5 78.75 C20.21384457 88.61618631 20.21384457 88.61618631 20 93 C20.66 93 21.32 93 22 93 C26.22323462 110.85649203 26.22323462 110.85649203 28 119 C28.66 119 29.32 119 30 119 C31.00419637 121.4566947 32.00350501 123.91518353 33 126.375 C33.28617187 127.07367188 33.57234375 127.77234375 33.8671875 128.4921875 C36 133.7734375 36 133.7734375 36 136 C36.66 136 37.32 136 38 136 C38.47050781 137.04800781 38.94101562 138.09601563 39.42578125 139.17578125 C40.05433548 140.554848 40.68326124 141.93374545 41.3125 143.3125 C41.62123047 144.00279297 41.92996094 144.69308594 42.24804688 145.40429688 C42.70727539 146.40493164 42.70727539 146.40493164 43.17578125 147.42578125 C43.45333252 148.03848877 43.73088379 148.65119629 44.0168457 149.2824707 C45.11344533 151.19818424 46.40463709 152.48580653 48 154 C48.96960213 155.35255423 49.90500819 156.73001259 50.8125 158.125 C51.33328125 158.91648437 51.8540625 159.70796875 52.390625 160.5234375 C53.44784259 162.15032088 54.50009158 163.78044595 55.546875 165.4140625 C58.37958188 169.77993547 61.25572635 173.35425987 65 177 C66.33333333 179 67.66666667 181 69 183 C71.68299922 185.9005397 74.53946657 188.46788653 77.5625 191 C80.4382956 193.42664748 82.72313731 195.99128858 85 199 C85.5775 199.556875 86.155 200.11375 86.75 200.6875 C88 202 88 202 88 204 C88.99 204.33 89.98 204.66 91 205 C92.61328125 206.671875 92.61328125 206.671875 94.3125 208.75 C96.46985696 211.31440545 98.3235583 213.24940953 101 215.3125 C106.02685112 219.33669079 110.13604088 225.46793185 111.6640625 231.71484375 C111.9375 234.1875 111.9375 234.1875 112 238 C106.2428346 239.10177559 101.17416232 238.82271172 95.375 238.125 C94.12589844 237.98771484 94.12589844 237.98771484 92.8515625 237.84765625 C88.85800113 237.39615489 84.92617977 236.88138729 81 236 C81 235.34 81 234.68 81 234 C79.845 233.938125 78.69 233.87625 77.5 233.8125 C70.08337211 233.02678982 63.04247782 230.34173189 56 228 C56 227.34 56 226.68 56 226 C55.41992188 225.81824219 54.83984375 225.63648438 54.2421875 225.44921875 C49.60852707 223.9581894 45.30237645 222.31666424 41 220 C41 219.34 41 218.68 41 218 C40.319375 217.7525 39.63875 217.505 38.9375 217.25 C35.43134917 215.75802092 32.28379632 213.93164489 29 212 C29 211.34 29 210.68 29 210 C28.236875 209.731875 27.47375 209.46375 26.6875 209.1875 C24.07686496 208.03396359 22.92614911 207.01370135 21 205 C20.01 204.67 19.02 204.34 18 204 C16.5 202.4765625 16.5 202.4765625 15 200.625 C13.49296532 198.78045235 12.04145181 197.03934084 10.3125 195.3984375 C9 194 9 194 9 192 C8.34 192 7.68 192 7 192 C-2 182.05263158 -2 182.05263158 -2 178 C-2.66 177.67 -3.32 177.34 -4 177 C-6.50230392 174.25553764 -8.23962072 171.66773771 -9.625 168.25 C-10.61915311 164.91980434 -10.61915311 164.91980434 -13 164 C-14.0572314 161.44674199 -15.02197092 158.91610788 -15.9375 156.3125 C-17.98631074 150.5487643 -17.98631074 150.5487643 -20.5546875 145.00390625 C-22.34225375 141.28866721 -23.27185766 137.62959917 -24.1875 133.625 C-24.36474609 132.90828125 -24.54199219 132.1915625 -24.72460938 131.453125 C-25.87603221 126.52734702 -26.16550198 122.05637071 -26 117 C-26.66 117 -27.32 117 -28 117 C-28.9661617 109.63301703 -29.10995612 102.29351531 -29.125 94.875 C-29.12951172 93.9260083 -29.13402344 92.9770166 -29.13867188 91.99926758 C-29.13577148 90.66545044 -29.13577148 90.66545044 -29.1328125 89.3046875 C-29.13168457 88.50015137 -29.13055664 87.69561523 -29.12939453 86.86669922 C-29 85 -29 85 -28 84 C-27.95372155 82.33397597 -27.96213099 80.66623639 -28 79 C-28.03786901 77.33376361 -28.04627845 75.66602403 -28 74 C-27.505 73.505 -27.505 73.505 -27 73 C-26.50418088 70.21027073 -26.0519076 67.42535719 -25.625 64.625 C-24.50939564 57.59377499 -23.0452007 50.82554932 -21 44 C-20.65918741 42.6685588 -20.32327751 41.33580707 -20 40 C-19.34 40 -18.68 40 -18 40 C-17.7525 38.72125 -17.505 37.4425 -17.25 36.125 C-16.08835439 30.830253 -14.13659734 25.96810741 -12 21 C-11.34 21 -10.68 21 -10 21 C-9.81824219 20.41992188 -9.63648438 19.83984375 -9.44921875 19.2421875 C-7.9581894 14.60852707 -6.31666424 10.30237645 -4 6 C-3.34 6 -2.68 6 -2 6 C-1.34 4.02 -0.68 2.04 0 0 Z " fill="#16C855" transform="translate(387,205)"/>
<path d="M0 0 C2 1 2 1 2 1 Z " fill="#D0E1D4" transform="translate(561,236)"/>
</svg>
